<?xml version="1.0"?><svg version="1.1" id="圖層_1" xmlns="http://www.w3.org/2000/svg" x="0" y="0" viewBox="0 0 100 100" xml:space="preserve"><g><path d="M70.5 89.375h-41a5.75 5.75 0 0 1-5.75-5.75V70c0-13.876 11.249-25.125 25.125-25.125h2.25C65.001 44.875 76.25 56.124 76.25 70v13.625a5.75 5.75 0 0 1-5.75 5.75z" fill="#a0c8d7"/><circle cx="50" cy="31.875" r="21.25" fill="#f5e6c8"/><path d="M53.71 21.88C48.432 28.621 40.225 32.958 31 32.958a29.11 29.11 0 0 1-2.2-.092c.521 11.272 9.799 20.259 21.2 20.259 11.736 0 21.25-9.514 21.25-21.25 0-1.473-.151-2.911-.436-4.3A22.573 22.573 0 0 1 53.71 21.88z" fill="#f5e6c8"/><path d="M58.606 12.456a28.725 28.725 0 0 1-4.896 9.423 22.579 22.579 0 0 0 17.105 5.696c-1.395-6.784-6.029-12.376-12.209-15.119z" fill="#4a3827"/><path d="M50 10.625c-1.042 0-2.059.1-3.061.245C36.657 12.358 28.75 21.181 28.75 31.875c0 .335.035.66.05.991a29.11 29.11 0 0 0 2.2.092c9.225 0 17.432-4.338 22.71-11.079a28.735 28.735 0 0 0 4.896-9.423A21.147 21.147 0 0 0 50 10.625z" fill="#4a3827"/></g><g><circle cx="76.293" cy="69.814" r="14.738" fill="#fff" stroke="#333" stroke-width="4" stroke-miterlimit="10"/><path d="M76.667 62.013l2.149 4.354a.418.418 0 0 0 .314.228l4.805.698c.342.05.479.47.231.712l-3.477 3.389a.419.419 0 0 0-.12.369l.821 4.786a.417.417 0 0 1-.605.44l-4.298-2.26a.416.416 0 0 0-.388 0l-4.298 2.26a.417.417 0 0 1-.605-.44l.821-4.786a.419.419 0 0 0-.12-.369l-3.477-3.389a.417.417 0 0 1 .231-.712l4.805-.698a.418.418 0 0 0 .314-.228l2.149-4.354a.417.417 0 0 1 .748 0z" fill="#f8b26a"/></g><metadata xmlns:d="https://loading.io/stock/">
<d:name>star</d:name>
<d:tags>star,favorite,bookmark,flag,label,tag,user,avatar,account,profile,customer,guest</d:tags>
<d:license>by</d:license>
<d:slug>vzh59j</d:slug>
</metadata></svg>