<?xml version="1.0"?><svg version="1.1" id="圖層_1" xmlns="http://www.w3.org/2000/svg" x="0" y="0" viewBox="0 0 100 100" xml:space="preserve"><g><path d="M69.641 43.448a21.287 21.287 0 0 1 8.043 8.899c.744 1.55 1.305 3.239 1.222 4.957-.087 1.817-.882 3.517-1.689 5.148a169.998 169.998 0 0 1-6.245 11.493c-4.758-4.793-8.824-10.392-11.129-16.739-1.822-5.016-2.778-11.098-1.439-16.357.929-3.648 1.036-3.193 3.887-1.595 2.434 1.363 4.965 2.737 7.35 4.194z" fill="#4a3827"/><path d="M67.835 89.375h-41a5.75 5.75 0 0 1-5.75-5.75V70c0-13.876 11.249-25.125 25.125-25.125h2.25c13.876 0 25.125 11.249 25.125 25.125v13.625a5.75 5.75 0 0 1-5.75 5.75z" fill="#a0c8d7"/><circle cx="47.335" cy="31.875" r="21.25" fill="#f5e6c8"/><path d="M51.045 21.88c-5.278 6.741-13.485 11.079-22.71 11.079a29.11 29.11 0 0 1-2.2-.092c.521 11.272 9.799 20.259 21.2 20.259 11.736 0 21.25-9.514 21.25-21.25 0-1.473-.151-2.911-.436-4.3a22.578 22.578 0 0 1-17.104-5.696z" fill="#f5e6c8"/><path d="M55.941 12.456a28.725 28.725 0 0 1-4.896 9.423 22.579 22.579 0 0 0 17.105 5.696c-1.395-6.784-6.029-12.376-12.209-15.119z" fill="#4a3827"/><path d="M47.335 10.625c-1.042 0-2.059.1-3.061.245-10.281 1.488-18.189 10.311-18.189 21.005 0 .335.035.66.05.991a29.11 29.11 0 0 0 2.2.092c9.225 0 17.432-4.338 22.71-11.079a28.735 28.735 0 0 0 4.896-9.423 21.143 21.143 0 0 0-8.606-1.831z" fill="#4a3827"/></g><g><circle cx="76.293" cy="69.814" r="14.738" fill="#fff" stroke="#333" stroke-width="4" stroke-miterlimit="10"/><path d="M76.667 62.013l2.149 4.354a.418.418 0 0 0 .314.228l4.805.698c.342.05.479.47.231.712l-3.477 3.389a.419.419 0 0 0-.12.369l.821 4.786a.417.417 0 0 1-.605.44l-4.298-2.26a.416.416 0 0 0-.388 0l-4.298 2.26a.417.417 0 0 1-.605-.44l.821-4.786a.419.419 0 0 0-.12-.369l-3.477-3.389a.417.417 0 0 1 .231-.712l4.805-.698a.418.418 0 0 0 .314-.228l2.149-4.354a.417.417 0 0 1 .748 0z" fill="#f8b26a"/></g><metadata xmlns:d="https://loading.io/stock/">
<d:name>star</d:name>
<d:tags>star,favorite,bookmark,flag,label,tag,user,avatar,account,profile,customer,guest</d:tags>
<d:license>by</d:license>
<d:slug>xtq5w0</d:slug>
</metadata></svg>